<?xml version="1.0" standalone="no"?><!DOCTYPE svg PUBLIC "-//W3C//DTD SVG 1.1//EN" "http://www.w3.org/Graphics/SVG/1.1/DTD/svg11.dtd"><svg t="1653195171855" class="icon" viewBox="0 0 1024 1024" version="1.1" xmlns="http://www.w3.org/2000/svg" p-id="10955" xmlns:xlink="http://www.w3.org/1999/xlink" width="200" height="200"><defs><style type="text/css">@font-face { font-family: feedback-iconfont; src: url("//at.alicdn.com/t/font_1031158_u69w8yhxdu.woff2?t=1630033759944") format("woff2"), url("//at.alicdn.com/t/font_1031158_u69w8yhxdu.woff?t=1630033759944") format("woff"), url("//at.alicdn.com/t/font_1031158_u69w8yhxdu.ttf?t=1630033759944") format("truetype"); }
</style></defs><path d="M678.758927 731.426377a51.930909 51.930909 0 0 0 52.66233-51.930909V51.936029A51.930909 51.930909 0 0 0 678.758927 0.00512H51.930909A51.930909 51.930909 0 0 0 0 51.936029v627.559439a51.930909 51.930909 0 0 0 51.930909 51.930909h626.828018z" p-id="10956" fill="#0062FF"></path><path d="M971.32743 292.573623H804.563383v454.212601a57.782279 57.782279 0 0 1-57.782279 57.782279H292.568503v167.495468a51.930909 51.930909 0 0 0 52.66233 51.930909h626.828018a51.930909 51.930909 0 0 0 51.930909-51.930909V344.504532a51.930909 51.930909 0 0 0-52.66233-51.930909z" p-id="10957" fill="#0062FF"></path></svg>