<?xml version="1.0" standalone="no"?><!DOCTYPE svg PUBLIC "-//W3C//DTD SVG 1.1//EN" "http://www.w3.org/Graphics/SVG/1.1/DTD/svg11.dtd"><svg t="1673525267454" class="icon" viewBox="0 0 1024 1024" version="1.1" xmlns="http://www.w3.org/2000/svg" p-id="3429" width="32" height="32" xmlns:xlink="http://www.w3.org/1999/xlink"><path d="M728.126772 465.975716H544.184226V213.217785a32.613927 32.613927 0 0 0-65.227853 0v285.371858a32.613927 32.613927 0 0 0 32.613926 32.613926h216.230334a32.613927 32.613927 0 0 0 0-65.227853zM885.652037 185.495947a32.613927 32.613927 0 0 0 45.985637-45.985636l-130.455706-130.455707a32.613927 32.613927 0 0 0-45.007219 46.964055z" fill="#ffffff" p-id="3430"></path><path d="M820.424184 835.165365A456.594972 456.594972 0 1 0 185.431034 817.227705L87.589254 972.143857a32.613927 32.613927 0 0 0 55.117536 34.570762l92.94969-147.741088a456.594972 456.594972 0 0 0 536.172954 15.654685l83.165512 130.455707a32.613927 32.613927 0 0 0 55.117536-34.570763zM120.20318 499.56806a391.367119 391.367119 0 1 1 391.367119 391.36712 391.367119 391.367119 0 0 1-391.367119-391.36712z" fill="#ffffff" p-id="3431"></path><path d="M120.20318 195.932404a32.613927 32.613927 0 0 0 23.155888-9.458039l130.455707-130.455706A32.613927 32.613927 0 0 0 227.17686 9.706883l-130.455707 130.455706A32.613927 32.613927 0 0 0 120.20318 195.932404z" fill="#ffffff" p-id="3432"></path></svg>